:FULLY-SPECIFIED
:FORCE-ALL-JOINTS-BE-3DOF
:DEGREES
238
root 6.21485 15.0181 -25.3117 9.83517 21.4976 11.3504
lfemur 3.49931 5.6446 -4.80623
ltibia 18.6995 0 0
lfoot -30.7512 -20.5475 0
ltoes 55.2456 0 0
rfemur -37.252 -18.9779 3.69758
rtibia 48.9239 0 0
rfoot -15.3809 15.131 0
rtoes 53.5837 0 0
lowerback 0.110694 -2.88872 -3.40832
upperback 1.43872 -3.92795 -7.4191
thorax 1.37172 -1.9796 -5.76745
lowerneck -9.84282 -3.14221 3.59953
upperneck 2.27256 -5.04249 5.50534
head 2.85292 -2.30462 0.950566
lclavicle 2.35829e-14 -4.19247e-14 0
lhumerus -53.9366 -48.3315 111.775
lradius 56.6213 0 0
lwrist 27.0063 0 0
lhand 35.1734 27.4838 0
lfingers 7.12502 0 0
lthumb 58.1389 41.9652 0
rclavicle 2.35829e-14 -4.19247e-14 0
rhumerus -19.32 20.3468 -31.7648
rradius 65.607 0 0
rwrist -16.7629 0 0
rhand -7.63696 -34.5071 0
rfingers 7.12502 0 0
rthumb 18.258 -562.551 0
239
root 6.27266 15.0205 -25.3138 9.93524 22.4146 11.5361
lfemur 3.24064 5.89111 -5.04243
ltibia 19.2771 0 0
lfoot -30.5235 -20.7961 0
ltoes 55.4736 0 0
rfemur -37.5021 -18.9454 4.22863
rtibia 48.9422 0 0
rfoot -14.8406 15.0535 0
rtoes 53.1336 0 0
lowerback 0.269135 -2.92244 -3.52058
upperback 1.50974 -3.98063 -7.3776
thorax 1.36594 -2.00649 -5.65379
lowerneck -9.76341 -3.29479 3.4689
upperneck 2.20515 -5.23033 5.61003
head 2.83087 -2.39959 1.00021
lclavicle 2.48175e-14 -4.23579e-14 0
lhumerus -53.7266 -48.2901 111.579
lradius 56.7012 0 0
lwrist 26.9463 0 0
lhand 34.9147 27.2625 0
lfingers 7.12502 0 0
lthumb 57.9074 41.907 0
rclavicle 2.48175e-14 -4.23579e-14 0
rhumerus -19.9965 21.2656 -32.7633
rradius 65.9152 0 0
rwrist -16.3533 0 0
rhand -7.54477 -34.0716 0
rfingers 7.12502 0 0
rthumb 18.3467 -566.264 0
240
root 6.33102 15.023 -25.3158 10.0356 23.3374 11.7218
lfemur 2.97667 6.13882 -5.28115
ltibia 19.8618 0 0
lfoot -30.2926 -21.0447 0
ltoes 55.6993 0 0
rfemur -37.7537 -18.912 4.76492
rtibia 48.9632 0 0
rfoot -14.2931 14.9754 0
rtoes 52.6744 0 0
lowerback 0.429019 -2.95589 -3.63338
upperback 1.58113 -4.03302 -7.3349
thorax 1.35981 -2.03323 -5.53853
lowerneck -9.68332 -3.44871 3.33714
upperneck 2.13695 -5.41979 5.71517
head 2.8085 -2.49539 1.05013
lclavicle 2.60598e-14 -4.27909e-14 0
lhumerus -53.5142 -48.2445 111.379
lradius 56.7811 0 0
lwrist 26.8847 0 0
lhand 34.6506 27.0374 0
lfingers 7.12502 0 0
lthumb 57.6711 41.8477 0
rclavicle 2.60598e-14 -4.27909e-14 0
rhumerus -20.681 22.1903 -33.7745
rradius 66.2248 0 0
rwrist -15.9386 0 0
rhand -7.45281 -33.6304 0
rfingers 7.12502 0 0
rthumb 18.4352 -569.969 0
241
root 6.3899 15.0257 -25.3176 10.1361 24.2653 11.9075
lfemur 2.7076 6.38759 -5.52224
ltibia 20.453 0 0
lfoot -30.0586 -21.2932 0
ltoes 55.9226 0 0
rfemur -38.0069 -18.8777 5.3061
rtibia 48.9869 0 0
rfoot -13.7387 14.8967 0
rtoes 52.2064 0 0
lowerback 0.590247 -2.98906 -3.74664
upperback 1.65283 -4.08508 -7.29104
thorax 1.35335 -2.05981 -5.42177
lowerneck -9.6026 -3.60387 3.20433
upperneck 2.068 -5.61072 5.82066
head 2.78584 -2.59195 1.1003
lclavicle 2.7309e-14 -4.32233e-14 0
lhumerus -53.2995 -48.1948 111.175
lradius 56.8608 0 0
lwrist 26.8216 0 0
lhand 34.3812 26.8086 0
lfingers 7.12502 0 0
lthumb 57.43 41.7873 0
rclavicle 2.7309e-14 -4.32233e-14 0
rhumerus -21.3731 23.1203 -34.7979
rradius 66.5355 0 0
rwrist -15.5192 0 0
rhand -7.36112 -33.1838 0
rfingers 7.12502 0 0
rthumb 18.5234 -573.665 0
242
root 6.44925 15.0286 -25.3193 10.2368 25.1976 12.093
lfemur 2.43364 6.63729 -5.76552
ltibia 21.0504 0 0
lfoot -29.8216 -21.5413 0
ltoes 56.1434 0 0
rfemur -38.2613 -18.8426 5.85185
rtibia 49.0134 0 0
rfoot -13.1778 14.8174 0
rtoes 51.7301 0 0
lowerback 0.752721 -3.02193 -3.86029
upperback 1.72483 -4.13678 -7.24606
thorax 1.34655 -2.08622 -5.30358
lowerneck -9.52128 -3.76014 3.07058
upperneck 1.99838 -5.80298 5.92645
head 2.76291 -2.6892 1.15067
lclavicle 2.85642e-14 -4.36549e-14 0
lhumerus -53.0826 -48.1411 110.969
lradius 56.9404 0 0
lwrist 26.7571 0 0
lhand 34.1069 26.5764 0
lfingers 7.12502 0 0
lthumb 57.1843 41.7258 0
rclavicle 2.85642e-14 -4.36549e-14 0
rhumerus -22.0723 24.055 -35.8326
rradius 66.8472 0 0
rwrist -15.0953 0 0
rhand -7.26976 -32.7321 0
rfingers 7.12502 0 0
rthumb 18.6113 -577.351 0
243
root 6.50902 15.0317 -25.3208 10.3376 26.1337 12.2783
lfemur 2.15496 6.88777 -6.01083
ltibia 21.6536 0 0
lfoot -29.5818 -21.7889 0
ltoes 56.3616 0 0
rfemur -38.5169 -18.8067 6.40183
rtibia 49.0425 0 0
rfoot -12.6108 14.7375 0
rtoes 51.2461 0 0
lowerback 0.916341 -3.05446 -3.97427
upperback 1.79706 -4.18807 -7.20001
thorax 1.33942 -2.11242 -5.18407
lowerneck -9.43943 -3.9174 2.93598
upperneck 1.92813 -5.99642 6.03248
head 2.73972 -2.78706 1.20123
lclavicle 2.98244e-14 -4.40855e-14 0
lhumerus -52.8636 -48.0834 110.76
lradius 57.0197 0 0
lwrist 26.6913 0 0
lhand 33.8276 26.3408 0
lfingers 7.12502 0 0
lthumb 56.9341 41.6633 0
rclavicle 2.98244e-14 -4.40855e-14 0
rhumerus -22.7782 24.9938 -36.8781
rradius 67.1598 0 0
rwrist -14.6673 0 0
rhand -7.17879 -32.2757 0
rfingers 7.12502 0 0
rthumb 18.6988 -581.028 0
244
root 6.56917 15.0349 -25.3221 10.4383 27.0728 12.4632
lfemur 1.87179 7.1389 -6.25801
ltibia 22.2622 0 0
lfoot -29.3393 -22.0358 0
ltoes 56.5769 0 0
rfemur -38.7734 -18.7702 6.95571
rtibia 49.0743 0 0
rfoot -12.0381 14.657 0
rtoes 50.7547 0 0
lowerback 1.08101 -3.08664 -4.0885
upperback 1.86949 -4.23893 -7.15293
thorax 1.33198 -2.13841 -5.06331
lowerneck -9.35707 -4.07555 2.80064
upperneck 1.85731 -6.1909 6.13867
head 2.71629 -2.88546 1.25193
lclavicle 3.10888e-14 -4.45148e-14 0
lhumerus -52.6428 -48.0219 110.547
lradius 57.0989 0 0
lwrist 26.6242 0 0
lhand 33.5436 26.1021 0
lfingers 7.12502 0 0
lthumb 56.6796 41.5999 0
rclavicle 3.10888e-14 -4.45148e-14 0
rhumerus -23.4902 25.9362 -37.9337
rradius 67.4729 0 0
rwrist -14.2353 0 0
rhand -7.08826 -31.8149 0
rfingers 7.12502 0 0
rthumb 18.7859 -584.693 0
